<svg width="180" height="170" viewBox="0 0 180 170" fill="none" xmlns="http://www.w3.org/2000/svg">
<mask id="path-1-inside-1_30_1366" fill="white">
<path d="M5 85C5 62.4566 13.9553 40.8365 29.8959 24.8959C45.8365 8.95534 67.4566 0 90 0C112.543 0 134.163 8.95532 150.104 24.8959C166.045 40.8365 175 62.4566 175 85L165.135 85C165.135 65.0729 157.219 45.9621 143.128 31.8715C129.038 17.781 109.927 9.86497 90 9.86497C70.0729 9.86497 50.9621 17.781 36.8715 31.8715C22.781 45.9621 14.865 65.073 14.865 85H5Z"/>
</mask>
<path d="M5 85C5 62.4566 13.9553 40.8365 29.8959 24.8959C45.8365 8.95534 67.4566 0 90 0C112.543 0 134.163 8.95532 150.104 24.8959C166.045 40.8365 175 62.4566 175 85L165.135 85C165.135 65.0729 157.219 45.9621 143.128 31.8715C129.038 17.781 109.927 9.86497 90 9.86497C70.0729 9.86497 50.9621 17.781 36.8715 31.8715C22.781 45.9621 14.865 65.073 14.865 85H5Z" stroke="#D3E7ED" stroke-width="24" mask="url(#path-1-inside-1_30_1366)"/>
<mask id="path-2-inside-2_30_1366" fill="white">
<path d="M5 85C5 64.8212 12.1788 45.3006 25.2523 29.9297C38.3259 14.5587 56.4414 4.3402 76.3586 1.10177C96.2758 -2.13666 116.696 1.81629 133.965 12.2535C151.235 22.6908 164.229 38.9316 170.621 58.0709L161.265 61.1962C155.614 44.2782 144.128 29.9223 128.863 20.6964C113.597 11.4705 95.5475 7.9763 77.9418 10.8389C60.3362 13.7015 44.3231 22.7341 32.7669 36.321C21.2106 49.908 14.865 67.1631 14.865 85H5Z"/>
</mask>
<path d="M5 85C5 64.8212 12.1788 45.3006 25.2523 29.9297C38.3259 14.5587 56.4414 4.3402 76.3586 1.10177C96.2758 -2.13666 116.696 1.81629 133.965 12.2535C151.235 22.6908 164.229 38.9316 170.621 58.0709L161.265 61.1962C155.614 44.2782 144.128 29.9223 128.863 20.6964C113.597 11.4705 95.5475 7.9763 77.9418 10.8389C60.3362 13.7015 44.3231 22.7341 32.7669 36.321C21.2106 49.908 14.865 67.1631 14.865 85H5Z" stroke="#63D7FB" stroke-width="24" mask="url(#path-2-inside-2_30_1366)"/>
<path d="M78.0697 64.228C78.4297 65.236 78.6097 66.4 78.6097 67.72V78.808C78.6097 80.776 77.9257 82.348 76.5577 83.524C75.1897 84.7 73.4017 85.288 71.1937 85.288C69.7777 85.288 68.5177 85.024 67.4137 84.496C66.3337 83.968 65.4937 83.236 64.8937 82.3C64.2937 81.34 63.9937 80.248 63.9937 79.024V78.304C63.9937 78.064 64.1137 77.944 64.3537 77.944H67.0897C67.3297 77.944 67.4497 78.064 67.4497 78.304V78.628C67.4497 79.708 67.7977 80.584 68.4937 81.256C69.1897 81.928 70.0897 82.264 71.1937 82.264C72.3457 82.264 73.2937 81.916 74.0377 81.22C74.7817 80.524 75.1537 79.6 75.1537 78.448V73.912C75.1537 73.864 75.1297 73.828 75.0817 73.804C75.0577 73.78 75.0217 73.792 74.9737 73.84C73.9417 75.016 72.4417 75.604 70.4737 75.604C69.0577 75.604 67.8337 75.316 66.8017 74.74C65.7937 74.164 65.0017 73.324 64.4257 72.22C63.7537 70.948 63.4177 69.424 63.4177 67.648C63.4177 66.208 63.6457 64.924 64.1017 63.796C64.6537 62.428 65.5177 61.384 66.6937 60.664C67.8697 59.92 69.2857 59.548 70.9417 59.548C72.7177 59.548 74.2177 59.956 75.4417 60.772C76.6657 61.588 77.5417 62.74 78.0697 64.228ZM74.5777 70.528C74.9617 69.736 75.1537 68.716 75.1537 67.468C75.1537 66.46 74.9977 65.608 74.6857 64.912C74.3737 64.144 73.9057 63.568 73.2817 63.184C72.6577 62.776 71.9017 62.572 71.0137 62.572C70.1257 62.572 69.3697 62.776 68.7457 63.184C68.1457 63.568 67.7017 64.132 67.4137 64.876C67.0537 65.62 66.8737 66.544 66.8737 67.648C66.8737 68.848 67.0777 69.832 67.4857 70.6C68.2297 71.992 69.4057 72.688 71.0137 72.688C72.7177 72.688 73.9057 71.968 74.5777 70.528ZM90.8278 85.36C88.4038 85.36 86.4718 84.676 85.0318 83.308C83.6158 81.916 82.9078 80.056 82.9078 77.728V67.072C82.9078 64.744 83.6158 62.896 85.0318 61.528C86.4718 60.16 88.4038 59.476 90.8278 59.476C93.2518 59.476 95.1838 60.16 96.6238 61.528C98.0878 62.896 98.8198 64.744 98.8198 67.072V77.728C98.8198 80.056 98.0878 81.916 96.6238 83.308C95.1838 84.676 93.2518 85.36 90.8278 85.36ZM90.8278 82.372C92.2198 82.372 93.3238 81.976 94.1398 81.184C94.9558 80.368 95.3638 79.288 95.3638 77.944V66.928C95.3638 65.584 94.9558 64.516 94.1398 63.724C93.3238 62.908 92.2198 62.5 90.8278 62.5C89.4838 62.5 88.4038 62.908 87.5878 63.724C86.7718 64.516 86.3638 65.584 86.3638 66.928V77.944C86.3638 79.288 86.7718 80.368 87.5878 81.184C88.4038 81.976 89.4838 82.372 90.8278 82.372ZM105.246 77.58C104.633 77.58 104.066 77.4333 103.546 77.14C103.026 76.8333 102.613 76.42 102.306 75.9C102 75.38 101.846 74.8133 101.846 74.2C101.846 73.5867 102 73.0267 102.306 72.52C102.613 72 103.026 71.5933 103.546 71.3C104.066 70.9933 104.633 70.84 105.246 70.84C105.86 70.84 106.42 70.9933 106.926 71.3C107.446 71.5933 107.86 72 108.166 72.52C108.473 73.0267 108.626 73.5867 108.626 74.2C108.626 74.8133 108.473 75.38 108.166 75.9C107.873 76.42 107.466 76.8333 106.946 77.14C106.426 77.4333 105.86 77.58 105.246 77.58ZM104.326 85C104.153 85 104.066 84.9333 104.066 84.8C104.066 84.7333 104.08 84.68 104.106 84.64L111.586 71.2C111.653 71.0667 111.773 71 111.946 71H113.946C114.026 71 114.086 71.02 114.126 71.06C114.18 71.0867 114.206 71.1267 114.206 71.18C114.206 71.2333 114.186 71.2933 114.146 71.36L106.686 84.8C106.62 84.9333 106.5 85 106.326 85H104.326ZM105.246 75.44C105.58 75.44 105.86 75.32 106.086 75.08C106.326 74.84 106.446 74.5467 106.446 74.2C106.446 73.8667 106.326 73.58 106.086 73.34C105.86 73.1 105.58 72.98 105.246 72.98C104.913 72.98 104.626 73.1 104.386 73.34C104.146 73.5667 104.026 73.8533 104.026 74.2C104.026 74.5467 104.14 74.84 104.366 75.08C104.606 75.32 104.9 75.44 105.246 75.44ZM113.266 85.16C112.653 85.16 112.086 85.0133 111.566 84.72C111.046 84.4133 110.633 84 110.326 83.48C110.02 82.96 109.866 82.3933 109.866 81.78C109.866 81.1667 110.02 80.6067 110.326 80.1C110.633 79.58 111.046 79.1733 111.566 78.88C112.086 78.5733 112.653 78.42 113.266 78.42C113.88 78.42 114.44 78.5733 114.946 78.88C115.466 79.1733 115.88 79.58 116.186 80.1C116.493 80.6067 116.646 81.1667 116.646 81.78C116.646 82.3933 116.493 82.96 116.186 83.48C115.893 84 115.486 84.4133 114.966 84.72C114.446 85.0133 113.88 85.16 113.266 85.16ZM113.266 83.02C113.6 83.02 113.88 82.9 114.106 82.66C114.346 82.42 114.466 82.1267 114.466 81.78C114.466 81.4467 114.346 81.16 114.106 80.92C113.88 80.68 113.6 80.56 113.266 80.56C112.933 80.56 112.646 80.68 112.406 80.92C112.166 81.1467 112.046 81.4333 112.046 81.78C112.046 82.1267 112.16 82.42 112.386 82.66C112.626 82.9 112.92 83.02 113.266 83.02Z" fill="#050F4E"/>
<path d="M5.78967 116.144C4.85367 116.144 4.03167 115.964 3.32367 115.604C2.61567 115.232 2.06967 114.716 1.68567 114.056C1.30167 113.396 1.10967 112.634 1.10967 111.77V107.612C1.10967 106.748 1.30167 105.986 1.68567 105.326C2.06967 104.666 2.61567 104.156 3.32367 103.796C4.03167 103.436 4.85367 103.256 5.78967 103.256C6.71367 103.256 7.52367 103.43 8.21967 103.778C8.92767 104.114 9.47367 104.6 9.85767 105.236C10.2537 105.86 10.4517 106.586 10.4517 107.414C10.4517 107.522 10.3797 107.588 10.2357 107.612L8.12967 107.738H8.09367C7.97367 107.738 7.91367 107.672 7.91367 107.54C7.91367 106.904 7.71567 106.394 7.31967 106.01C6.93567 105.626 6.42567 105.434 5.78967 105.434C5.14167 105.434 4.61967 105.626 4.22367 106.01C3.83967 106.394 3.64767 106.904 3.64767 107.54V111.878C3.64767 112.502 3.83967 113.006 4.22367 113.39C4.61967 113.774 5.14167 113.966 5.78967 113.966C6.42567 113.966 6.93567 113.774 7.31967 113.39C7.71567 113.006 7.91367 112.502 7.91367 111.878C7.91367 111.746 7.98567 111.68 8.12967 111.68L10.2357 111.77C10.2957 111.77 10.3437 111.788 10.3797 111.824C10.4277 111.86 10.4517 111.902 10.4517 111.95C10.4517 112.778 10.2537 113.51 9.85767 114.146C9.47367 114.782 8.92767 115.274 8.21967 115.622C7.52367 115.97 6.71367 116.144 5.78967 116.144ZM17.5508 106.964C17.5508 106.904 17.5688 106.856 17.6048 106.82C17.6528 106.772 17.7068 106.748 17.7668 106.748H19.8728C19.9328 106.748 19.9808 106.772 20.0168 106.82C20.0648 106.856 20.0888 106.904 20.0888 106.964V115.784C20.0888 115.844 20.0648 115.898 20.0168 115.946C19.9808 115.982 19.9328 116 19.8728 116H17.7668C17.7068 116 17.6528 115.982 17.6048 115.946C17.5688 115.898 17.5508 115.844 17.5508 115.784V115.172C17.5508 115.136 17.5388 115.118 17.5148 115.118C17.4908 115.106 17.4668 115.118 17.4428 115.154C16.9628 115.802 16.2188 116.126 15.2108 116.126C14.2988 116.126 13.5488 115.85 12.9608 115.298C12.3728 114.746 12.0788 113.972 12.0788 112.976V106.964C12.0788 106.904 12.0968 106.856 12.1328 106.82C12.1808 106.772 12.2348 106.748 12.2948 106.748H14.3828C14.4428 106.748 14.4908 106.772 14.5268 106.82C14.5748 106.856 14.5988 106.904 14.5988 106.964V112.346C14.5988 112.826 14.7248 113.216 14.9768 113.516C15.2408 113.816 15.6008 113.966 16.0568 113.966C16.4648 113.966 16.8008 113.846 17.0648 113.606C17.3288 113.354 17.4908 113.03 17.5508 112.634V106.964ZM25.6494 116.126C24.8454 116.126 24.1434 116.012 23.5434 115.784C22.9434 115.556 22.4754 115.238 22.1394 114.83C21.8154 114.422 21.6534 113.96 21.6534 113.444V113.264C21.6534 113.204 21.6714 113.156 21.7074 113.12C21.7554 113.072 21.8094 113.048 21.8694 113.048H23.8674C23.9274 113.048 23.9754 113.072 24.0114 113.12C24.0594 113.156 24.0834 113.204 24.0834 113.264V113.282C24.0834 113.546 24.2274 113.774 24.5154 113.966C24.8154 114.146 25.1874 114.236 25.6314 114.236C26.0394 114.236 26.3694 114.158 26.6214 114.002C26.8734 113.834 26.9994 113.63 26.9994 113.39C26.9994 113.174 26.8914 113.012 26.6754 112.904C26.4594 112.796 26.1054 112.682 25.6134 112.562C25.0494 112.418 24.6054 112.28 24.2814 112.148C23.5134 111.884 22.9014 111.56 22.4454 111.176C21.9894 110.792 21.7614 110.24 21.7614 109.52C21.7614 108.632 22.1034 107.93 22.7874 107.414C23.4834 106.886 24.4014 106.622 25.5414 106.622C26.3094 106.622 26.9814 106.748 27.5574 107C28.1334 107.24 28.5774 107.582 28.8894 108.026C29.2134 108.47 29.3754 108.974 29.3754 109.538C29.3754 109.598 29.3514 109.652 29.3034 109.7C29.2674 109.736 29.2194 109.754 29.1594 109.754H27.2334C27.1734 109.754 27.1194 109.736 27.0714 109.7C27.0354 109.652 27.0174 109.598 27.0174 109.538C27.0174 109.274 26.8794 109.052 26.6034 108.872C26.3394 108.692 25.9854 108.602 25.5414 108.602C25.1454 108.602 24.8214 108.674 24.5694 108.818C24.3174 108.962 24.1914 109.16 24.1914 109.412C24.1914 109.652 24.3114 109.832 24.5514 109.952C24.8034 110.072 25.2174 110.198 25.7934 110.33C25.9254 110.366 26.0754 110.408 26.2434 110.456C26.4114 110.492 26.5914 110.54 26.7834 110.6C27.6354 110.852 28.3074 111.176 28.7994 111.572C29.2914 111.968 29.5374 112.544 29.5374 113.3C29.5374 114.188 29.1834 114.884 28.4754 115.388C27.7794 115.88 26.8374 116.126 25.6494 116.126ZM36.287 108.566C36.287 108.626 36.263 108.68 36.215 108.728C36.179 108.764 36.131 108.782 36.071 108.782H34.343C34.283 108.782 34.253 108.812 34.253 108.872V112.688C34.253 113.084 34.331 113.378 34.487 113.57C34.655 113.762 34.919 113.858 35.279 113.858H35.873C35.933 113.858 35.981 113.882 36.017 113.93C36.065 113.966 36.089 114.014 36.089 114.074V115.784C36.089 115.916 36.017 115.994 35.873 116.018C35.369 116.042 35.009 116.054 34.793 116.054C33.797 116.054 33.053 115.892 32.561 115.568C32.069 115.232 31.817 114.608 31.805 113.696V108.872C31.805 108.812 31.775 108.782 31.715 108.782H30.689C30.629 108.782 30.575 108.764 30.527 108.728C30.491 108.68 30.473 108.626 30.473 108.566V106.964C30.473 106.904 30.491 106.856 30.527 106.82C30.575 106.772 30.629 106.748 30.689 106.748H31.715C31.775 106.748 31.805 106.718 31.805 106.658V104.516C31.805 104.456 31.823 104.408 31.859 104.372C31.907 104.324 31.961 104.3 32.021 104.3H34.037C34.097 104.3 34.145 104.324 34.181 104.372C34.229 104.408 34.253 104.456 34.253 104.516V106.658C34.253 106.718 34.283 106.748 34.343 106.748H36.071C36.131 106.748 36.179 106.772 36.215 106.82C36.263 106.856 36.287 106.904 36.287 106.964V108.566ZM41.7779 116.144C40.7699 116.144 39.9059 115.88 39.1859 115.352C38.4659 114.824 37.9739 114.104 37.7099 113.192C37.5419 112.628 37.4579 112.016 37.4579 111.356C37.4579 110.648 37.5419 110.012 37.7099 109.448C37.9859 108.56 38.4839 107.864 39.2039 107.36C39.9239 106.856 40.7879 106.604 41.7959 106.604C42.7799 106.604 43.6199 106.856 44.3159 107.36C45.0119 107.852 45.5039 108.542 45.7919 109.43C45.9839 110.03 46.0799 110.66 46.0799 111.32C46.0799 111.968 45.9959 112.574 45.8279 113.138C45.5639 114.074 45.0719 114.812 44.3519 115.352C43.6439 115.88 42.7859 116.144 41.7779 116.144ZM41.7779 113.966C42.1739 113.966 42.5099 113.846 42.7859 113.606C43.0619 113.366 43.2599 113.036 43.3799 112.616C43.4759 112.232 43.5239 111.812 43.5239 111.356C43.5239 110.852 43.4759 110.426 43.3799 110.078C43.2479 109.67 43.0439 109.352 42.7679 109.124C42.4919 108.896 42.1559 108.782 41.7599 108.782C41.3519 108.782 41.0099 108.896 40.7339 109.124C40.4699 109.352 40.2779 109.67 40.1579 110.078C40.0619 110.366 40.0139 110.792 40.0139 111.356C40.0139 111.896 40.0559 112.316 40.1399 112.616C40.2599 113.036 40.4579 113.366 40.7339 113.606C41.0219 113.846 41.3699 113.966 41.7779 113.966ZM57.9714 106.604C58.9074 106.604 59.6394 106.886 60.1674 107.45C60.6954 108.014 60.9594 108.806 60.9594 109.826V115.784C60.9594 115.844 60.9354 115.898 60.8874 115.946C60.8514 115.982 60.8034 116 60.7434 116H58.6374C58.5774 116 58.5234 115.982 58.4754 115.946C58.4394 115.898 58.4214 115.844 58.4214 115.784V110.384C58.4214 109.892 58.2954 109.502 58.0434 109.214C57.7914 108.926 57.4554 108.782 57.0354 108.782C56.6154 108.782 56.2734 108.926 56.0094 109.214C55.7454 109.502 55.6134 109.886 55.6134 110.366V115.784C55.6134 115.844 55.5894 115.898 55.5414 115.946C55.5054 115.982 55.4574 116 55.3974 116H53.3094C53.2494 116 53.1954 115.982 53.1474 115.946C53.1114 115.898 53.0934 115.844 53.0934 115.784V110.384C53.0934 109.904 52.9614 109.52 52.6974 109.232C52.4334 108.932 52.0914 108.782 51.6714 108.782C51.2874 108.782 50.9634 108.896 50.6994 109.124C50.4474 109.352 50.2974 109.67 50.2494 110.078V115.784C50.2494 115.844 50.2254 115.898 50.1774 115.946C50.1414 115.982 50.0934 116 50.0334 116H47.9274C47.8674 116 47.8134 115.982 47.7654 115.946C47.7294 115.898 47.7114 115.844 47.7114 115.784V106.964C47.7114 106.904 47.7294 106.856 47.7654 106.82C47.8134 106.772 47.8674 106.748 47.9274 106.748H50.0334C50.0934 106.748 50.1414 106.772 50.1774 106.82C50.2254 106.856 50.2494 106.904 50.2494 106.964V107.666C50.2494 107.702 50.2614 107.726 50.2854 107.738C50.3094 107.75 50.3334 107.738 50.3574 107.702C50.8494 106.97 51.6114 106.604 52.6434 106.604C53.2434 106.604 53.7654 106.73 54.2094 106.982C54.6654 107.234 55.0134 107.594 55.2534 108.062C55.2894 108.134 55.3314 108.134 55.3794 108.062C55.6434 107.57 55.9974 107.204 56.4414 106.964C56.8974 106.724 57.4074 106.604 57.9714 106.604ZM70.878 110.42C70.95 110.876 70.974 111.386 70.95 111.95C70.938 112.094 70.86 112.166 70.716 112.166H65.154C65.082 112.166 65.058 112.196 65.082 112.256C65.118 112.496 65.184 112.736 65.28 112.976C65.592 113.648 66.228 113.984 67.188 113.984C67.956 113.972 68.562 113.66 69.006 113.048C69.054 112.976 69.108 112.94 69.168 112.94C69.204 112.94 69.246 112.964 69.294 113.012L70.59 114.29C70.65 114.35 70.68 114.404 70.68 114.452C70.68 114.476 70.656 114.524 70.608 114.596C70.212 115.088 69.702 115.472 69.078 115.748C68.454 116.012 67.77 116.144 67.026 116.144C65.994 116.144 65.118 115.91 64.398 115.442C63.69 114.974 63.18 114.32 62.868 113.48C62.616 112.88 62.49 112.094 62.49 111.122C62.49 110.462 62.58 109.88 62.76 109.376C63.036 108.524 63.516 107.846 64.2 107.342C64.896 106.838 65.718 106.586 66.666 106.586C67.866 106.586 68.826 106.934 69.546 107.63C70.278 108.326 70.722 109.256 70.878 110.42ZM66.684 108.782C65.928 108.782 65.43 109.136 65.19 109.844C65.142 110 65.1 110.192 65.064 110.42C65.064 110.48 65.094 110.51 65.154 110.51H68.268C68.34 110.51 68.364 110.48 68.34 110.42C68.28 110.072 68.25 109.904 68.25 109.916C68.142 109.556 67.95 109.28 67.674 109.088C67.41 108.884 67.08 108.782 66.684 108.782ZM77.1221 106.622C77.5541 106.622 77.8961 106.706 78.1481 106.874C78.2441 106.922 78.2801 107.012 78.2561 107.144L77.8781 109.196C77.8661 109.34 77.7821 109.382 77.6261 109.322C77.4461 109.262 77.2361 109.232 76.9961 109.232C76.9001 109.232 76.7681 109.244 76.6001 109.268C76.1681 109.304 75.8021 109.466 75.5021 109.754C75.2021 110.03 75.0521 110.402 75.0521 110.87V115.784C75.0521 115.844 75.0281 115.898 74.9801 115.946C74.9441 115.982 74.8961 116 74.8361 116H72.7301C72.6701 116 72.6161 115.982 72.5681 115.946C72.5321 115.898 72.5141 115.844 72.5141 115.784V106.964C72.5141 106.904 72.5321 106.856 72.5681 106.82C72.6161 106.772 72.6701 106.748 72.7301 106.748H74.8361C74.8961 106.748 74.9441 106.772 74.9801 106.82C75.0281 106.856 75.0521 106.904 75.0521 106.964V107.648C75.0521 107.684 75.0641 107.708 75.0881 107.72C75.1121 107.732 75.1301 107.726 75.1421 107.702C75.6341 106.982 76.2941 106.622 77.1221 106.622ZM87.4903 116.144C86.5303 116.144 85.6903 115.994 84.9703 115.694C84.2503 115.382 83.6923 114.944 83.2963 114.38C82.9123 113.804 82.7203 113.138 82.7203 112.382V111.986C82.7203 111.926 82.7383 111.878 82.7743 111.842C82.8223 111.794 82.8763 111.77 82.9363 111.77H84.9883C85.0483 111.77 85.0963 111.794 85.1323 111.842C85.1803 111.878 85.2043 111.926 85.2043 111.986V112.256C85.2043 112.736 85.4263 113.144 85.8703 113.48C86.3143 113.804 86.9143 113.966 87.6703 113.966C88.3063 113.966 88.7803 113.834 89.0923 113.57C89.4043 113.294 89.5603 112.958 89.5603 112.562C89.5603 112.274 89.4643 112.034 89.2723 111.842C89.0803 111.638 88.8163 111.464 88.4803 111.32C88.1563 111.164 87.6343 110.954 86.9143 110.69C86.1103 110.414 85.4263 110.132 84.8623 109.844C84.3103 109.556 83.8423 109.166 83.4583 108.674C83.0863 108.17 82.9003 107.552 82.9003 106.82C82.9003 106.1 83.0863 105.47 83.4583 104.93C83.8303 104.39 84.3463 103.976 85.0063 103.688C85.6663 103.4 86.4283 103.256 87.2923 103.256C88.2043 103.256 89.0143 103.418 89.7223 103.742C90.4423 104.066 91.0003 104.522 91.3963 105.11C91.8043 105.686 92.0083 106.358 92.0083 107.126V107.396C92.0083 107.456 91.9843 107.51 91.9363 107.558C91.9003 107.594 91.8523 107.612 91.7923 107.612H89.7223C89.6623 107.612 89.6083 107.594 89.5603 107.558C89.5243 107.51 89.5063 107.456 89.5063 107.396V107.252C89.5063 106.748 89.2963 106.322 88.8763 105.974C88.4683 105.614 87.9043 105.434 87.1843 105.434C86.6203 105.434 86.1763 105.554 85.8523 105.794C85.5403 106.034 85.3843 106.364 85.3843 106.784C85.3843 107.084 85.4743 107.336 85.6543 107.54C85.8463 107.744 86.1223 107.93 86.4823 108.098C86.8543 108.254 87.4243 108.47 88.1923 108.746C89.0443 109.058 89.7103 109.334 90.1903 109.574C90.6823 109.814 91.1203 110.174 91.5043 110.654C91.9003 111.122 92.0983 111.734 92.0983 112.49C92.0983 113.618 91.6843 114.512 90.8563 115.172C90.0283 115.82 88.9063 116.144 87.4903 116.144ZM97.2979 106.604C98.0779 106.604 98.7739 106.742 99.3859 107.018C99.9979 107.282 100.472 107.648 100.808 108.116C101.156 108.584 101.33 109.106 101.33 109.682V115.784C101.33 115.844 101.306 115.898 101.258 115.946C101.222 115.982 101.174 116 101.114 116H99.0079C98.9479 116 98.8939 115.982 98.8459 115.946C98.8099 115.898 98.7919 115.844 98.7919 115.784V115.19C98.7919 115.154 98.7799 115.13 98.7559 115.118C98.7319 115.106 98.7079 115.118 98.6839 115.154C98.1799 115.814 97.3699 116.144 96.2539 116.144C95.3179 116.144 94.5619 115.916 93.9859 115.46C93.4099 115.004 93.1219 114.332 93.1219 113.444C93.1219 112.52 93.4459 111.806 94.0939 111.302C94.7419 110.786 95.6659 110.528 96.8659 110.528H98.7019C98.7619 110.528 98.7919 110.498 98.7919 110.438V110.042C98.7919 109.646 98.6719 109.34 98.4319 109.124C98.1919 108.896 97.8319 108.782 97.3519 108.782C96.9799 108.782 96.6679 108.848 96.4159 108.98C96.1759 109.112 96.0199 109.298 95.9479 109.538C95.9119 109.67 95.8339 109.73 95.7139 109.718L93.5359 109.43C93.3919 109.406 93.3259 109.352 93.3379 109.268C93.3859 108.764 93.5839 108.308 93.9319 107.9C94.2919 107.492 94.7599 107.174 95.3359 106.946C95.9239 106.718 96.5779 106.604 97.2979 106.604ZM96.9379 114.254C97.4539 114.254 97.8919 114.116 98.2519 113.84C98.6119 113.564 98.7919 113.21 98.7919 112.778V112.13C98.7919 112.07 98.7619 112.04 98.7019 112.04H97.4059C96.8659 112.04 96.4399 112.142 96.1279 112.346C95.8279 112.55 95.6779 112.838 95.6779 113.21C95.6779 113.534 95.7919 113.792 96.0199 113.984C96.2479 114.164 96.5539 114.254 96.9379 114.254ZM108.234 108.566C108.234 108.626 108.21 108.68 108.162 108.728C108.126 108.764 108.078 108.782 108.018 108.782H106.29C106.23 108.782 106.2 108.812 106.2 108.872V112.688C106.2 113.084 106.278 113.378 106.434 113.57C106.602 113.762 106.866 113.858 107.226 113.858H107.82C107.88 113.858 107.928 113.882 107.964 113.93C108.012 113.966 108.036 114.014 108.036 114.074V115.784C108.036 115.916 107.964 115.994 107.82 116.018C107.316 116.042 106.956 116.054 106.74 116.054C105.744 116.054 105 115.892 104.508 115.568C104.016 115.232 103.764 114.608 103.752 113.696V108.872C103.752 108.812 103.722 108.782 103.662 108.782H102.636C102.576 108.782 102.522 108.764 102.474 108.728C102.438 108.68 102.42 108.626 102.42 108.566V106.964C102.42 106.904 102.438 106.856 102.474 106.82C102.522 106.772 102.576 106.748 102.636 106.748H103.662C103.722 106.748 103.752 106.718 103.752 106.658V104.516C103.752 104.456 103.77 104.408 103.806 104.372C103.854 104.324 103.908 104.3 103.968 104.3H105.984C106.044 104.3 106.092 104.324 106.128 104.372C106.176 104.408 106.2 104.456 106.2 104.516V106.658C106.2 106.718 106.23 106.748 106.29 106.748H108.018C108.078 106.748 108.126 106.772 108.162 106.82C108.21 106.856 108.234 106.904 108.234 106.964V108.566ZM111.13 105.704C110.722 105.704 110.38 105.572 110.104 105.308C109.84 105.032 109.708 104.69 109.708 104.282C109.708 103.862 109.84 103.52 110.104 103.256C110.368 102.992 110.71 102.86 111.13 102.86C111.55 102.86 111.892 102.992 112.156 103.256C112.42 103.52 112.552 103.862 112.552 104.282C112.552 104.69 112.414 105.032 112.138 105.308C111.874 105.572 111.538 105.704 111.13 105.704ZM110.05 116C109.99 116 109.936 115.982 109.888 115.946C109.852 115.898 109.834 115.844 109.834 115.784V106.946C109.834 106.886 109.852 106.838 109.888 106.802C109.936 106.754 109.99 106.73 110.05 106.73H112.156C112.216 106.73 112.264 106.754 112.3 106.802C112.348 106.838 112.372 106.886 112.372 106.946V115.784C112.372 115.844 112.348 115.898 112.3 115.946C112.264 115.982 112.216 116 112.156 116H110.05ZM118.04 116.126C117.236 116.126 116.534 116.012 115.934 115.784C115.334 115.556 114.866 115.238 114.53 114.83C114.206 114.422 114.044 113.96 114.044 113.444V113.264C114.044 113.204 114.062 113.156 114.098 113.12C114.146 113.072 114.2 113.048 114.26 113.048H116.258C116.318 113.048 116.366 113.072 116.402 113.12C116.45 113.156 116.474 113.204 116.474 113.264V113.282C116.474 113.546 116.618 113.774 116.906 113.966C117.206 114.146 117.578 114.236 118.022 114.236C118.43 114.236 118.76 114.158 119.012 114.002C119.264 113.834 119.39 113.63 119.39 113.39C119.39 113.174 119.282 113.012 119.066 112.904C118.85 112.796 118.496 112.682 118.004 112.562C117.44 112.418 116.996 112.28 116.672 112.148C115.904 111.884 115.292 111.56 114.836 111.176C114.38 110.792 114.152 110.24 114.152 109.52C114.152 108.632 114.494 107.93 115.178 107.414C115.874 106.886 116.792 106.622 117.932 106.622C118.7 106.622 119.372 106.748 119.948 107C120.524 107.24 120.968 107.582 121.28 108.026C121.604 108.47 121.766 108.974 121.766 109.538C121.766 109.598 121.742 109.652 121.694 109.7C121.658 109.736 121.61 109.754 121.55 109.754H119.624C119.564 109.754 119.51 109.736 119.462 109.7C119.426 109.652 119.408 109.598 119.408 109.538C119.408 109.274 119.27 109.052 118.994 108.872C118.73 108.692 118.376 108.602 117.932 108.602C117.536 108.602 117.212 108.674 116.96 108.818C116.708 108.962 116.582 109.16 116.582 109.412C116.582 109.652 116.702 109.832 116.942 109.952C117.194 110.072 117.608 110.198 118.184 110.33C118.316 110.366 118.466 110.408 118.634 110.456C118.802 110.492 118.982 110.54 119.174 110.6C120.026 110.852 120.698 111.176 121.19 111.572C121.682 111.968 121.928 112.544 121.928 113.3C121.928 114.188 121.574 114.884 120.866 115.388C120.17 115.88 119.228 116.126 118.04 116.126ZM128.642 106.73C128.702 106.73 128.75 106.754 128.786 106.802C128.834 106.838 128.858 106.886 128.858 106.946V108.656C128.858 108.716 128.834 108.77 128.786 108.818C128.75 108.854 128.702 108.872 128.642 108.872H126.896C126.836 108.872 126.806 108.902 126.806 108.962V115.784C126.806 115.844 126.782 115.898 126.734 115.946C126.698 115.982 126.65 116 126.59 116H124.484C124.424 116 124.37 115.982 124.322 115.946C124.286 115.898 124.268 115.844 124.268 115.784V108.962C124.268 108.902 124.238 108.872 124.178 108.872H123.116C123.056 108.872 123.002 108.854 122.954 108.818C122.918 108.77 122.9 108.716 122.9 108.656V106.946C122.9 106.886 122.918 106.838 122.954 106.802C123.002 106.754 123.056 106.73 123.116 106.73H124.178C124.238 106.73 124.268 106.7 124.268 106.64V106.244C124.268 105.5 124.382 104.924 124.61 104.516C124.838 104.096 125.204 103.802 125.708 103.634C126.224 103.454 126.932 103.376 127.832 103.4H128.516C128.576 103.4 128.624 103.424 128.66 103.472C128.708 103.508 128.732 103.556 128.732 103.616V105.074C128.732 105.134 128.708 105.188 128.66 105.236C128.624 105.272 128.576 105.29 128.516 105.29H127.922C127.502 105.302 127.208 105.392 127.04 105.56C126.884 105.716 126.806 106.01 126.806 106.442V106.64C126.806 106.7 126.836 106.73 126.896 106.73H128.642ZM133.896 106.604C134.676 106.604 135.372 106.742 135.984 107.018C136.596 107.282 137.07 107.648 137.406 108.116C137.754 108.584 137.928 109.106 137.928 109.682V115.784C137.928 115.844 137.904 115.898 137.856 115.946C137.82 115.982 137.772 116 137.712 116H135.606C135.546 116 135.492 115.982 135.444 115.946C135.408 115.898 135.39 115.844 135.39 115.784V115.19C135.39 115.154 135.378 115.13 135.354 115.118C135.33 115.106 135.306 115.118 135.282 115.154C134.778 115.814 133.968 116.144 132.852 116.144C131.916 116.144 131.16 115.916 130.584 115.46C130.008 115.004 129.72 114.332 129.72 113.444C129.72 112.52 130.044 111.806 130.692 111.302C131.34 110.786 132.264 110.528 133.464 110.528H135.3C135.36 110.528 135.39 110.498 135.39 110.438V110.042C135.39 109.646 135.27 109.34 135.03 109.124C134.79 108.896 134.43 108.782 133.95 108.782C133.578 108.782 133.266 108.848 133.014 108.98C132.774 109.112 132.618 109.298 132.546 109.538C132.51 109.67 132.432 109.73 132.312 109.718L130.134 109.43C129.99 109.406 129.924 109.352 129.936 109.268C129.984 108.764 130.182 108.308 130.53 107.9C130.89 107.492 131.358 107.174 131.934 106.946C132.522 106.718 133.176 106.604 133.896 106.604ZM133.536 114.254C134.052 114.254 134.49 114.116 134.85 113.84C135.21 113.564 135.39 113.21 135.39 112.778V112.13C135.39 112.07 135.36 112.04 135.3 112.04H134.004C133.464 112.04 133.038 112.142 132.726 112.346C132.426 112.55 132.276 112.838 132.276 113.21C132.276 113.534 132.39 113.792 132.618 113.984C132.846 114.164 133.152 114.254 133.536 114.254ZM143.783 116.144C142.823 116.144 141.989 115.904 141.281 115.424C140.585 114.944 140.087 114.284 139.787 113.444C139.583 112.844 139.481 112.136 139.481 111.32C139.481 110.516 139.583 109.82 139.787 109.232C140.075 108.416 140.573 107.774 141.281 107.306C141.989 106.838 142.823 106.604 143.783 106.604C144.743 106.604 145.583 106.844 146.303 107.324C147.035 107.804 147.521 108.41 147.761 109.142C147.857 109.43 147.905 109.646 147.905 109.79V109.826C147.905 109.934 147.845 110 147.725 110.024L145.655 110.33H145.619C145.511 110.33 145.439 110.27 145.403 110.15L145.349 109.862C145.265 109.55 145.079 109.292 144.791 109.088C144.503 108.884 144.161 108.782 143.765 108.782C143.381 108.782 143.057 108.878 142.793 109.07C142.529 109.262 142.343 109.526 142.235 109.862C142.103 110.222 142.037 110.714 142.037 111.338C142.037 111.962 142.097 112.454 142.217 112.814C142.325 113.174 142.511 113.456 142.775 113.66C143.051 113.864 143.381 113.966 143.765 113.966C144.137 113.966 144.461 113.87 144.737 113.678C145.025 113.474 145.223 113.198 145.331 112.85C145.343 112.826 145.349 112.79 145.349 112.742C145.361 112.73 145.367 112.712 145.367 112.688C145.379 112.544 145.463 112.484 145.619 112.508L147.689 112.832C147.809 112.856 147.869 112.922 147.869 113.03C147.869 113.126 147.833 113.306 147.761 113.57C147.509 114.374 147.017 115.004 146.285 115.46C145.565 115.916 144.731 116.144 143.783 116.144ZM154.693 108.566C154.693 108.626 154.669 108.68 154.621 108.728C154.585 108.764 154.537 108.782 154.477 108.782H152.749C152.689 108.782 152.659 108.812 152.659 108.872V112.688C152.659 113.084 152.737 113.378 152.893 113.57C153.061 113.762 153.325 113.858 153.685 113.858H154.279C154.339 113.858 154.387 113.882 154.423 113.93C154.471 113.966 154.495 114.014 154.495 114.074V115.784C154.495 115.916 154.423 115.994 154.279 116.018C153.775 116.042 153.415 116.054 153.199 116.054C152.203 116.054 151.459 115.892 150.967 115.568C150.475 115.232 150.223 114.608 150.211 113.696V108.872C150.211 108.812 150.181 108.782 150.121 108.782H149.095C149.035 108.782 148.981 108.764 148.933 108.728C148.897 108.68 148.879 108.626 148.879 108.566V106.964C148.879 106.904 148.897 106.856 148.933 106.82C148.981 106.772 149.035 106.748 149.095 106.748H150.121C150.181 106.748 150.211 106.718 150.211 106.658V104.516C150.211 104.456 150.229 104.408 150.265 104.372C150.313 104.324 150.367 104.3 150.427 104.3H152.443C152.503 104.3 152.551 104.324 152.587 104.372C152.635 104.408 152.659 104.456 152.659 104.516V106.658C152.659 106.718 152.689 106.748 152.749 106.748H154.477C154.537 106.748 154.585 106.772 154.621 106.82C154.669 106.856 154.693 106.904 154.693 106.964V108.566ZM157.589 105.704C157.181 105.704 156.839 105.572 156.563 105.308C156.299 105.032 156.167 104.69 156.167 104.282C156.167 103.862 156.299 103.52 156.563 103.256C156.827 102.992 157.169 102.86 157.589 102.86C158.009 102.86 158.351 102.992 158.615 103.256C158.879 103.52 159.011 103.862 159.011 104.282C159.011 104.69 158.873 105.032 158.597 105.308C158.333 105.572 157.997 105.704 157.589 105.704ZM156.509 116C156.449 116 156.395 115.982 156.347 115.946C156.311 115.898 156.293 115.844 156.293 115.784V106.946C156.293 106.886 156.311 106.838 156.347 106.802C156.395 106.754 156.449 106.73 156.509 106.73H158.615C158.675 106.73 158.723 106.754 158.759 106.802C158.807 106.838 158.831 106.886 158.831 106.946V115.784C158.831 115.844 158.807 115.898 158.759 115.946C158.723 115.982 158.675 116 158.615 116H156.509ZM164.895 116.144C163.887 116.144 163.023 115.88 162.303 115.352C161.583 114.824 161.091 114.104 160.827 113.192C160.659 112.628 160.575 112.016 160.575 111.356C160.575 110.648 160.659 110.012 160.827 109.448C161.103 108.56 161.601 107.864 162.321 107.36C163.041 106.856 163.905 106.604 164.913 106.604C165.897 106.604 166.737 106.856 167.433 107.36C168.129 107.852 168.621 108.542 168.909 109.43C169.101 110.03 169.197 110.66 169.197 111.32C169.197 111.968 169.113 112.574 168.945 113.138C168.681 114.074 168.189 114.812 167.469 115.352C166.761 115.88 165.903 116.144 164.895 116.144ZM164.895 113.966C165.291 113.966 165.627 113.846 165.903 113.606C166.179 113.366 166.377 113.036 166.497 112.616C166.593 112.232 166.641 111.812 166.641 111.356C166.641 110.852 166.593 110.426 166.497 110.078C166.365 109.67 166.161 109.352 165.885 109.124C165.609 108.896 165.273 108.782 164.877 108.782C164.469 108.782 164.127 108.896 163.851 109.124C163.587 109.352 163.395 109.67 163.275 110.078C163.179 110.366 163.131 110.792 163.131 111.356C163.131 111.896 163.173 112.316 163.257 112.616C163.377 113.036 163.575 113.366 163.851 113.606C164.139 113.846 164.487 113.966 164.895 113.966ZM175.653 106.604C176.613 106.604 177.387 106.898 177.975 107.486C178.563 108.074 178.857 108.872 178.857 109.88V115.784C178.857 115.844 178.833 115.898 178.785 115.946C178.749 115.982 178.701 116 178.641 116H176.535C176.475 116 176.421 115.982 176.373 115.946C176.337 115.898 176.319 115.844 176.319 115.784V110.402C176.319 109.922 176.181 109.532 175.905 109.232C175.641 108.932 175.287 108.782 174.843 108.782C174.399 108.782 174.039 108.932 173.763 109.232C173.499 109.532 173.367 109.922 173.367 110.402V115.784C173.367 115.844 173.343 115.898 173.295 115.946C173.259 115.982 173.211 116 173.151 116H171.045C170.985 116 170.931 115.982 170.883 115.946C170.847 115.898 170.829 115.844 170.829 115.784V106.964C170.829 106.904 170.847 106.856 170.883 106.82C170.931 106.772 170.985 106.748 171.045 106.748H173.151C173.211 106.748 173.259 106.772 173.295 106.82C173.343 106.856 173.367 106.904 173.367 106.964V107.594C173.367 107.63 173.379 107.654 173.403 107.666C173.427 107.678 173.445 107.672 173.457 107.648C173.949 106.952 174.681 106.604 175.653 106.604Z" fill="#050F4E"/>
</svg>
