<svg width="52" height="52" viewBox="0 0 52 52" fill="none" xmlns="http://www.w3.org/2000/svg">
<path d="M37.2 44.5152C39.1401 44.5152 41.0008 43.7445 42.3726 42.3726M37.2 44.5152C35.2599 44.5152 33.3992 43.7445 32.0274 42.3726M37.2 44.5152V50M42.3726 42.3726C43.7445 41.0008 44.5152 39.1401 44.5152 37.2M42.3726 42.3726L46.2517 46.2517M44.5152 37.2C44.5152 35.2599 43.7445 33.3992 42.3726 32.0274M44.5152 37.2H50M42.3726 32.0274C41.0008 30.6555 39.1401 29.8848 37.2 29.8848M42.3726 32.0274L46.2517 28.1483M37.2 29.8848C35.2599 29.8848 33.3992 30.6555 32.0274 32.0274M37.2 29.8848V24.4M32.0274 32.0274C30.6555 33.3992 29.8848 35.2599 29.8848 37.2M32.0274 32.0274L28.1483 28.1483M29.8848 37.2C29.8848 39.1401 30.6555 41.0008 32.0274 42.3726M29.8848 37.2H24.4M32.0274 42.3726L28.1483 46.2517M35.9819 24.4H38.4181M45.3899 27.2864L47.1136 29.0101M50 35.9819V38.4181M47.1136 45.3899L45.3899 47.1136M38.4181 50H35.9819M29.0101 47.1136L27.2864 45.3899M24.4 38.4181V35.9819M27.2864 29.0101L29.0101 27.2864M22.9173 23.6277C21.6887 21.4874 19.7876 19.8127 17.5093 18.8637C15.2311 17.9148 12.7033 17.7448 10.3185 18.3801C7.93373 19.0154 5.82549 20.4204 4.32127 22.377C2.81704 24.3335 2.00104 26.7321 2 29.2V34H6.8L8.4 50H18L18.6891 43.1051M13.2 14.8C14.8974 14.8 16.5253 14.1257 17.7255 12.9255C18.9257 11.7253 19.6 10.0974 19.6 8.4C19.6 6.70261 18.9257 5.07475 17.7255 3.87452C16.5253 2.67428 14.8974 2 13.2 2C11.5026 2 9.87475 2.67428 8.67452 3.87452C7.47428 5.07475 6.8 6.70261 6.8 8.4C6.8 10.0974 7.47428 11.7253 8.67452 12.9255C9.87475 14.1257 11.5026 14.8 13.2 14.8Z" stroke="#63D7FB" stroke-width="4" stroke-linecap="round" stroke-linejoin="round"/>
</svg>
