<svg width="131" height="20" viewBox="0 0 131 20" fill="none" xmlns="http://www.w3.org/2000/svg">
<path d="M20.6897 7.65517H12.7931L10.3448 0L7.89655 7.65517H0L6.37931 12.3793L3.96552 20L10.3448 15.2759L16.7241 20L14.2759 12.3448L20.6897 7.65517Z" fill="#FFCE31"/>
<path d="M48.0461 7.65517H40.1495L37.7013 0L35.253 7.65517H27.3564L33.7358 12.3793L31.322 20L37.7013 15.2759L44.0806 20L41.6323 12.3448L48.0461 7.65517Z" fill="#FFCE31"/>
<path d="M75.4025 7.65517H67.506L65.0577 0L62.6094 7.65517H54.7129L61.0922 12.3793L58.6784 20L65.0577 15.2759L71.437 20L68.9888 12.3448L75.4025 7.65517Z" fill="#FFCE31"/>
<path d="M102.759 7.65517H94.8624L92.4142 0L89.9659 7.65517H82.0693L88.4486 12.3793L86.0349 20L92.4142 15.2759L98.7935 20L96.3452 12.3448L102.759 7.65517Z" fill="#FFCE31"/>
<path d="M130.115 7.65517H122.218L119.77 0L117.322 7.65517H109.425L115.805 12.3793L113.391 20L119.77 15.2759L126.149 20L123.701 12.3448L130.115 7.65517Z" fill="#FFCE31"/>
</svg>
