<svg width="44" height="48" viewBox="0 0 44 48" fill="none" xmlns="http://www.w3.org/2000/svg">
<path fill-rule="evenodd" clip-rule="evenodd" d="M43.5712 3.0384C43.5712 0.770278 41.1385 -0.745033 39.0906 0.380557C36.3384 1.89103 28.1906 6.29172 23.313 8.23064C17.6367 10.4842 12.7494 11.3315 7.1481 11.5929C3.26784 11.772 0 14.9067 0 18.9516V28.6341C0 32.6789 3.26784 35.8136 7.1481 35.9928C7.81135 36.0242 8.4625 36.063 9.1088 36.1114L7.30786 45.104C7.18203 45.7338 7.31154 46.3878 7.66789 46.9221C8.02425 47.4564 8.57826 47.8272 9.20805 47.9531C9.83784 48.0789 10.4918 47.9494 11.0261 47.593C11.5604 47.2367 11.9313 46.6827 12.0571 46.0529L13.9283 36.6899C16.9855 37.2103 20.0161 38.0454 23.313 39.355C28.1906 41.2939 36.336 45.697 39.0906 47.2051C41.1385 48.3307 43.5712 46.8154 43.5712 44.5472V3.0384ZM14.5237 31.8825C17.9562 32.4514 21.3814 33.3785 25.1019 34.8575C29.1007 36.4454 34.9925 39.5027 38.73 41.5045V6.08112C34.9925 8.08298 29.1007 11.1402 25.1019 12.7282C21.3814 14.2047 17.9562 15.1343 14.5237 15.7055V31.8825ZM9.68249 16.2865C8.92 16.3446 8.15266 16.393 7.37322 16.4293C5.91358 16.4971 4.84125 17.6493 4.84125 18.9516V28.6341C4.84125 29.9364 5.91358 31.0886 7.37322 31.1564C8.15266 31.1927 8.92242 31.2411 9.68249 31.3016V16.284V16.2865Z" fill="white"/>
</svg>
