<svg width="52" height="43" viewBox="0 0 52 43" fill="none" xmlns="http://www.w3.org/2000/svg">
<path d="M40.4 40.4L49.5776 31.2224C49.8477 30.9526 49.9997 30.5866 50 30.2048V17.6C50 16.6452 49.6207 15.7295 48.9456 15.0544C48.2705 14.3793 47.3548 14 46.4 14C45.4452 14 44.5296 14.3793 43.8544 15.0544C43.1793 15.7295 42.8 16.6452 42.8 17.6V28.4M40.4 30.8L42.4592 28.7408C42.5674 28.6328 42.6532 28.5044 42.7117 28.3632C42.7701 28.2219 42.8002 28.0705 42.8 27.9176C42.7997 27.7018 42.7393 27.4903 42.6258 27.3068C42.5122 27.1233 42.3498 26.975 42.1568 26.8784L41.0936 26.348C40.1929 25.8976 39.1733 25.742 38.1792 25.9031C37.1851 26.0641 36.2668 26.5338 35.5544 27.2456L33.4064 29.3936C32.5062 30.2936 32.0003 31.5143 32 32.7872V40.4M11.6 40.4L2.4224 31.2224C2.15227 30.9526 2.00034 30.5866 2 30.2048V17.6C2 16.6452 2.37928 15.7295 3.05442 15.0544C3.72955 14.3793 4.64522 14 5.6 14C6.55478 14 7.47045 14.3793 8.14559 15.0544C8.82072 15.7295 9.2 16.6452 9.2 17.6V28.4M11.6 30.8L9.5408 28.7408C9.43272 28.6327 9.347 28.5043 9.28852 28.3631C9.23005 28.2219 9.19997 28.0705 9.2 27.9176C9.2 27.4784 9.4496 27.0776 9.8432 26.8784L10.9064 26.348C11.8071 25.8976 12.8267 25.742 13.8208 25.9031C14.8149 26.0641 15.7332 26.5338 16.4456 27.2456L18.5936 29.3936C19.4938 30.2936 19.9997 31.5143 20 32.7872V40.4M30.0008 21.2H21.9992V15.6008H16.4V7.5992H21.9992V2H30.0008V7.5992H35.6V15.6008H30.0008V21.2Z" stroke="#6ED8A1" stroke-width="4" stroke-linecap="round" stroke-linejoin="round"/>
</svg>
