<svg width="36" height="48" viewBox="0 0 36 48" fill="none" xmlns="http://www.w3.org/2000/svg">
<path d="M19.5 13.5C19.5 13.1022 19.342 12.7206 19.0607 12.4393C18.7794 12.158 18.3978 12 18 12C17.6022 12 17.2206 12.158 16.9393 12.4393C16.658 12.7206 16.5 13.1022 16.5 13.5V15.402L14.853 14.451C14.6823 14.351 14.4936 14.2857 14.2976 14.2589C14.1016 14.2321 13.9022 14.2443 13.711 14.2949C13.5197 14.3454 13.3404 14.4333 13.1832 14.5535C13.0261 14.6736 12.8943 14.8237 12.7954 14.995C12.6964 15.1663 12.6324 15.3555 12.6069 15.5517C12.5814 15.7479 12.595 15.9471 12.6468 16.138C12.6986 16.3289 12.7877 16.5077 12.9089 16.6641C13.0301 16.8204 13.181 16.9512 13.353 17.049L15 18L13.353 18.951C13.181 19.0488 13.0301 19.1796 12.9089 19.3359C12.7877 19.4923 12.6986 19.6711 12.6468 19.862C12.595 20.0529 12.5814 20.2521 12.6069 20.4483C12.6324 20.6445 12.6964 20.8337 12.7954 21.005C12.8943 21.1763 13.0261 21.3264 13.1832 21.4465C13.3404 21.5667 13.5197 21.6546 13.711 21.7051C13.9022 21.7557 14.1016 21.7679 14.2976 21.7411C14.4936 21.7143 14.6823 21.649 14.853 21.549L16.5 20.598V22.5C16.5 22.8978 16.658 23.2794 16.9393 23.5607C17.2206 23.842 17.6022 24 18 24C18.3978 24 18.7794 23.842 19.0607 23.5607C19.342 23.2794 19.5 22.8978 19.5 22.5V20.598L21.147 21.549C21.3177 21.649 21.5064 21.7143 21.7024 21.7411C21.8984 21.7679 22.0978 21.7557 22.289 21.7051C22.4803 21.6546 22.6596 21.5667 22.8168 21.4465C22.9739 21.3264 23.1057 21.1763 23.2046 21.005C23.3036 20.8337 23.3676 20.6445 23.3931 20.4483C23.4186 20.2521 23.405 20.0529 23.3532 19.862C23.3014 19.6711 23.2123 19.4923 23.0911 19.3359C22.9699 19.1796 22.819 19.0488 22.647 18.951L21 18L22.647 17.049C22.819 16.9512 22.9699 16.8204 23.0911 16.6641C23.2123 16.5077 23.3014 16.3289 23.3532 16.138C23.405 15.9471 23.4186 15.7479 23.3931 15.5517C23.3676 15.3555 23.3036 15.1663 23.2046 14.995C23.1057 14.8237 22.9739 14.6736 22.8168 14.5535C22.6596 14.4333 22.4803 14.3454 22.289 14.2949C22.0978 14.2443 21.8984 14.2321 21.7024 14.2589C21.5064 14.2857 21.3177 14.351 21.147 14.451L19.5 15.402V13.5ZM10.5 27C10.1022 27 9.72064 27.158 9.43934 27.4393C9.15804 27.7206 9 28.1022 9 28.5C9 28.8978 9.15804 29.2794 9.43934 29.5607C9.72064 29.842 10.1022 30 10.5 30H25.5C25.8978 30 26.2794 29.842 26.5607 29.5607C26.842 29.2794 27 28.8978 27 28.5C27 28.1022 26.842 27.7206 26.5607 27.4393C26.2794 27.158 25.8978 27 25.5 27H10.5ZM10.5 33C10.1022 33 9.72064 33.158 9.43934 33.4393C9.15804 33.7206 9 34.1022 9 34.5C9 34.8978 9.15804 35.2794 9.43934 35.5607C9.72064 35.842 10.1022 36 10.5 36H25.5C25.8978 36 26.2794 35.842 26.5607 35.5607C26.842 35.2794 27 34.8978 27 34.5C27 34.1022 26.842 33.7206 26.5607 33.4393C26.2794 33.158 25.8978 33 25.5 33H10.5Z" fill="#63D7FB"/>
<path d="M0 6C0 4.4087 0.632141 2.88258 1.75736 1.75736C2.88258 0.632141 4.4087 0 6 0H30C31.5913 0 33.1174 0.632141 34.2426 1.75736C35.3679 2.88258 36 4.4087 36 6V42C36 43.5913 35.3679 45.1174 34.2426 46.2426C33.1174 47.3679 31.5913 48 30 48H6C4.4087 48 2.88258 47.3679 1.75736 46.2426C0.632141 45.1174 0 43.5913 0 42V6ZM30 3H6C5.20435 3 4.44129 3.31607 3.87868 3.87868C3.31607 4.44129 3 5.20435 3 6V42C3 42.7956 3.31607 43.5587 3.87868 44.1213C4.44129 44.6839 5.20435 45 6 45H30C30.7956 45 31.5587 44.6839 32.1213 44.1213C32.6839 43.5587 33 42.7956 33 42V6C33 5.20435 32.6839 4.44129 32.1213 3.87868C31.5587 3.31607 30.7956 3 30 3Z" fill="#63D7FB"/>
</svg>
