<svg width="170" height="170" viewBox="0 0 170 170" fill="none" xmlns="http://www.w3.org/2000/svg">
<mask id="path-1-inside-1_30_1371" fill="white">
<path d="M0 85C0 62.4566 8.95534 40.8365 24.8959 24.8959C40.8365 8.95534 62.4566 0 85 0C107.543 0 129.163 8.95532 145.104 24.8959C161.045 40.8365 170 62.4566 170 85L160.135 85C160.135 65.0729 152.219 45.9621 138.128 31.8715C124.038 17.781 104.927 9.86497 85 9.86497C65.0729 9.86497 45.9621 17.781 31.8715 31.8715C17.781 45.9621 9.86497 65.073 9.86497 85H0Z"/>
</mask>
<path d="M0 85C0 62.4566 8.95534 40.8365 24.8959 24.8959C40.8365 8.95534 62.4566 0 85 0C107.543 0 129.163 8.95532 145.104 24.8959C161.045 40.8365 170 62.4566 170 85L160.135 85C160.135 65.0729 152.219 45.9621 138.128 31.8715C124.038 17.781 104.927 9.86497 85 9.86497C65.0729 9.86497 45.9621 17.781 31.8715 31.8715C17.781 45.9621 9.86497 65.073 9.86497 85H0Z" stroke="#DCEEE3" stroke-width="24" mask="url(#path-1-inside-1_30_1371)"/>
<mask id="path-2-inside-2_30_1371" fill="white">
<path d="M0 85C0 67.0078 5.70924 49.4797 16.3058 34.939C26.9024 20.3983 41.8396 9.59508 58.9672 4.08464C76.0948 -1.4258 94.5292 -1.35921 111.617 4.2748C128.704 9.9088 143.563 20.8196 154.054 35.4365L146.04 41.1887C136.766 28.2683 123.632 18.6238 108.527 13.6436C93.4233 8.66351 77.1283 8.60466 61.9886 13.4756C46.8488 18.3465 33.6451 27.8958 24.2784 40.749C14.9116 53.6021 9.86497 69.0959 9.86497 85H0Z"/>
</mask>
<path d="M0 85C0 67.0078 5.70924 49.4797 16.3058 34.939C26.9024 20.3983 41.8396 9.59508 58.9672 4.08464C76.0948 -1.4258 94.5292 -1.35921 111.617 4.2748C128.704 9.9088 143.563 20.8196 154.054 35.4365L146.04 41.1887C136.766 28.2683 123.632 18.6238 108.527 13.6436C93.4233 8.66351 77.1283 8.60466 61.9886 13.4756C46.8488 18.3465 33.6451 27.8958 24.2784 40.749C14.9116 53.6021 9.86497 69.0959 9.86497 85H0Z" stroke="#6ED8A1" stroke-width="24" mask="url(#path-2-inside-2_30_1371)"/>
<path d="M73.4749 74.236C73.9789 75.244 74.2309 76.444 74.2309 77.836C74.2309 79.372 73.8949 80.716 73.2229 81.868C72.6469 82.948 71.7829 83.788 70.6309 84.388C69.5029 84.988 68.1709 85.288 66.6349 85.288C65.0989 85.288 63.7429 84.988 62.5669 84.388C61.3909 83.764 60.5029 82.876 59.9029 81.724C59.2549 80.596 58.9309 79.288 58.9309 77.8C58.9309 76.48 59.1949 75.268 59.7229 74.164C60.2509 73.06 61.0309 72.232 62.0629 71.68C62.1829 71.632 62.1829 71.572 62.0629 71.5C61.2949 70.924 60.7189 70.324 60.3349 69.7C59.6629 68.692 59.3269 67.54 59.3269 66.244C59.3269 64.828 59.7349 63.532 60.5509 62.356C61.1509 61.444 61.9789 60.724 63.0349 60.196C64.1149 59.668 65.3149 59.404 66.6349 59.404C67.9789 59.404 69.1669 59.668 70.1989 60.196C71.2309 60.724 72.0469 61.444 72.6469 62.356C73.4389 63.532 73.8349 64.828 73.8349 66.244C73.8349 67.54 73.4989 68.716 72.8269 69.772C72.3949 70.444 71.8309 71.02 71.1349 71.5C71.0149 71.572 71.0149 71.632 71.1349 71.68C72.1429 72.232 72.9229 73.084 73.4749 74.236ZM63.2509 64.408C62.9149 65.032 62.7469 65.644 62.7469 66.244C62.7469 67.204 62.9749 68.008 63.4309 68.656C64.0789 69.736 65.1349 70.276 66.5989 70.276C68.0389 70.276 69.1069 69.724 69.8029 68.62C70.2109 68.044 70.4149 67.24 70.4149 66.208C70.4149 65.536 70.2589 64.924 69.9469 64.372C69.6349 63.772 69.1909 63.292 68.6149 62.932C68.0389 62.572 67.3549 62.392 66.5629 62.392C65.8189 62.392 65.1589 62.572 64.5829 62.932C64.0069 63.292 63.5629 63.784 63.2509 64.408ZM69.9109 80.644C70.4629 79.876 70.7389 78.844 70.7389 77.548C70.7389 76.396 70.5349 75.448 70.1269 74.704C69.4549 73.456 68.2789 72.832 66.5989 72.832C64.9669 72.832 63.8149 73.42 63.1429 74.596C62.6869 75.364 62.4589 76.36 62.4589 77.584C62.4589 78.784 62.7109 79.768 63.2149 80.536C63.9109 81.688 65.0509 82.264 66.6349 82.264C68.1229 82.264 69.2149 81.724 69.9109 80.644ZM82.5592 81.832C82.5352 81.88 82.5352 81.928 82.5592 81.976C82.5832 82 82.6192 82.012 82.6672 82.012H93.5032C93.7432 82.012 93.8632 82.132 93.8632 82.372V84.64C93.8632 84.88 93.7432 85 93.5032 85H78.4192C78.1792 85 78.0592 84.88 78.0592 84.64V82.444C78.0592 82.276 78.1192 82.132 78.2392 82.012C79.0552 81.076 80.9272 78.88 83.8552 75.424L86.3392 72.436C88.5712 69.772 89.6872 67.708 89.6872 66.244C89.6872 65.116 89.3032 64.216 88.5352 63.544C87.7912 62.848 86.7952 62.5 85.5472 62.5C84.2992 62.5 83.3032 62.848 82.5592 63.544C81.8152 64.24 81.4552 65.152 81.4792 66.28V67.36C81.4792 67.6 81.3592 67.72 81.1192 67.72H78.3472C78.1072 67.72 77.9872 67.6 77.9872 67.36V65.812C78.0352 64.564 78.3832 63.46 79.0312 62.5C79.7032 61.54 80.6032 60.808 81.7312 60.304C82.8592 59.776 84.1312 59.512 85.5472 59.512C87.0832 59.512 88.4272 59.8 89.5792 60.376C90.7312 60.952 91.6192 61.744 92.2432 62.752C92.8672 63.76 93.1792 64.9 93.1792 66.172C93.1792 68.164 92.0992 70.516 89.9392 73.228C88.9792 74.452 87.8392 75.832 86.5192 77.368C85.1992 78.88 83.8792 80.368 82.5592 81.832ZM99.8773 77.58C99.2639 77.58 98.6973 77.4333 98.1773 77.14C97.6573 76.8333 97.2439 76.42 96.9373 75.9C96.6306 75.38 96.4773 74.8133 96.4773 74.2C96.4773 73.5867 96.6306 73.0267 96.9373 72.52C97.2439 72 97.6573 71.5933 98.1773 71.3C98.6973 70.9933 99.2639 70.84 99.8773 70.84C100.491 70.84 101.051 70.9933 101.557 71.3C102.077 71.5933 102.491 72 102.797 72.52C103.104 73.0267 103.257 73.5867 103.257 74.2C103.257 74.8133 103.104 75.38 102.797 75.9C102.504 76.42 102.097 76.8333 101.577 77.14C101.057 77.4333 100.491 77.58 99.8773 77.58ZM98.9573 85C98.7839 85 98.6973 84.9333 98.6973 84.8C98.6973 84.7333 98.7106 84.68 98.7373 84.64L106.217 71.2C106.284 71.0667 106.404 71 106.577 71H108.577C108.657 71 108.717 71.02 108.757 71.06C108.811 71.0867 108.837 71.1267 108.837 71.18C108.837 71.2333 108.817 71.2933 108.777 71.36L101.317 84.8C101.251 84.9333 101.131 85 100.957 85H98.9573ZM99.8773 75.44C100.211 75.44 100.491 75.32 100.717 75.08C100.957 74.84 101.077 74.5467 101.077 74.2C101.077 73.8667 100.957 73.58 100.717 73.34C100.491 73.1 100.211 72.98 99.8773 72.98C99.5439 72.98 99.2573 73.1 99.0173 73.34C98.7773 73.5667 98.6573 73.8533 98.6573 74.2C98.6573 74.5467 98.7706 74.84 98.9973 75.08C99.2373 75.32 99.5306 75.44 99.8773 75.44ZM107.897 85.16C107.284 85.16 106.717 85.0133 106.197 84.72C105.677 84.4133 105.264 84 104.957 83.48C104.651 82.96 104.497 82.3933 104.497 81.78C104.497 81.1667 104.651 80.6067 104.957 80.1C105.264 79.58 105.677 79.1733 106.197 78.88C106.717 78.5733 107.284 78.42 107.897 78.42C108.511 78.42 109.071 78.5733 109.577 78.88C110.097 79.1733 110.511 79.58 110.817 80.1C111.124 80.6067 111.277 81.1667 111.277 81.78C111.277 82.3933 111.124 82.96 110.817 83.48C110.524 84 110.117 84.4133 109.597 84.72C109.077 85.0133 108.511 85.16 107.897 85.16ZM107.897 83.02C108.231 83.02 108.511 82.9 108.737 82.66C108.977 82.42 109.097 82.1267 109.097 81.78C109.097 81.4467 108.977 81.16 108.737 80.92C108.511 80.68 108.231 80.56 107.897 80.56C107.564 80.56 107.277 80.68 107.037 80.92C106.797 81.1467 106.677 81.4333 106.677 81.78C106.677 82.1267 106.791 82.42 107.017 82.66C107.257 82.9 107.551 83.02 107.897 83.02Z" fill="#050F4E"/>
<path d="M9.47904 116C9.41904 116 9.36504 115.982 9.31704 115.946C9.28104 115.898 9.26304 115.844 9.26304 115.784V103.616C9.26304 103.556 9.28104 103.508 9.31704 103.472C9.36504 103.424 9.41904 103.4 9.47904 103.4H11.585C11.645 103.4 11.693 103.424 11.729 103.472C11.777 103.508 11.801 103.556 11.801 103.616V115.784C11.801 115.844 11.777 115.898 11.729 115.946C11.693 115.982 11.645 116 11.585 116H9.47904ZM18.6536 106.604C19.6136 106.604 20.3876 106.898 20.9756 107.486C21.5636 108.074 21.8576 108.872 21.8576 109.88V115.784C21.8576 115.844 21.8336 115.898 21.7856 115.946C21.7496 115.982 21.7016 116 21.6416 116H19.5356C19.4756 116 19.4216 115.982 19.3736 115.946C19.3376 115.898 19.3196 115.844 19.3196 115.784V110.402C19.3196 109.922 19.1816 109.532 18.9056 109.232C18.6416 108.932 18.2876 108.782 17.8436 108.782C17.3996 108.782 17.0396 108.932 16.7636 109.232C16.4996 109.532 16.3676 109.922 16.3676 110.402V115.784C16.3676 115.844 16.3436 115.898 16.2956 115.946C16.2596 115.982 16.2116 116 16.1516 116H14.0456C13.9856 116 13.9316 115.982 13.8836 115.946C13.8476 115.898 13.8296 115.844 13.8296 115.784V106.964C13.8296 106.904 13.8476 106.856 13.8836 106.82C13.9316 106.772 13.9856 106.748 14.0456 106.748H16.1516C16.2116 106.748 16.2596 106.772 16.2956 106.82C16.3436 106.856 16.3676 106.904 16.3676 106.964V107.594C16.3676 107.63 16.3796 107.654 16.4036 107.666C16.4276 107.678 16.4456 107.672 16.4576 107.648C16.9496 106.952 17.6816 106.604 18.6536 106.604ZM27.6886 116.144C26.7286 116.144 25.8946 115.904 25.1866 115.424C24.4906 114.944 23.9926 114.284 23.6926 113.444C23.4886 112.844 23.3866 112.136 23.3866 111.32C23.3866 110.516 23.4886 109.82 23.6926 109.232C23.9806 108.416 24.4786 107.774 25.1866 107.306C25.8946 106.838 26.7286 106.604 27.6886 106.604C28.6486 106.604 29.4886 106.844 30.2086 107.324C30.9406 107.804 31.4266 108.41 31.6666 109.142C31.7626 109.43 31.8106 109.646 31.8106 109.79V109.826C31.8106 109.934 31.7506 110 31.6306 110.024L29.5606 110.33H29.5246C29.4166 110.33 29.3446 110.27 29.3086 110.15L29.2546 109.862C29.1706 109.55 28.9846 109.292 28.6966 109.088C28.4086 108.884 28.0666 108.782 27.6706 108.782C27.2866 108.782 26.9626 108.878 26.6986 109.07C26.4346 109.262 26.2486 109.526 26.1406 109.862C26.0086 110.222 25.9426 110.714 25.9426 111.338C25.9426 111.962 26.0026 112.454 26.1226 112.814C26.2306 113.174 26.4166 113.456 26.6806 113.66C26.9566 113.864 27.2866 113.966 27.6706 113.966C28.0426 113.966 28.3666 113.87 28.6426 113.678C28.9306 113.474 29.1286 113.198 29.2366 112.85C29.2486 112.826 29.2546 112.79 29.2546 112.742C29.2666 112.73 29.2726 112.712 29.2726 112.688C29.2846 112.544 29.3686 112.484 29.5246 112.508L31.5946 112.832C31.7146 112.856 31.7746 112.922 31.7746 113.03C31.7746 113.126 31.7386 113.306 31.6666 113.57C31.4146 114.374 30.9226 115.004 30.1906 115.46C29.4706 115.916 28.6366 116.144 27.6886 116.144ZM37.8965 106.622C38.3285 106.622 38.6705 106.706 38.9225 106.874C39.0185 106.922 39.0545 107.012 39.0305 107.144L38.6525 109.196C38.6405 109.34 38.5565 109.382 38.4005 109.322C38.2205 109.262 38.0105 109.232 37.7705 109.232C37.6745 109.232 37.5425 109.244 37.3745 109.268C36.9425 109.304 36.5765 109.466 36.2765 109.754C35.9765 110.03 35.8265 110.402 35.8265 110.87V115.784C35.8265 115.844 35.8025 115.898 35.7545 115.946C35.7185 115.982 35.6705 116 35.6105 116H33.5045C33.4445 116 33.3905 115.982 33.3425 115.946C33.3065 115.898 33.2885 115.844 33.2885 115.784V106.964C33.2885 106.904 33.3065 106.856 33.3425 106.82C33.3905 106.772 33.4445 106.748 33.5045 106.748H35.6105C35.6705 106.748 35.7185 106.772 35.7545 106.82C35.8025 106.856 35.8265 106.904 35.8265 106.964V107.648C35.8265 107.684 35.8385 107.708 35.8625 107.72C35.8865 107.732 35.9045 107.726 35.9165 107.702C36.4085 106.982 37.0685 106.622 37.8965 106.622ZM48.1406 110.42C48.2126 110.876 48.2366 111.386 48.2126 111.95C48.2006 112.094 48.1226 112.166 47.9786 112.166H42.4166C42.3446 112.166 42.3206 112.196 42.3446 112.256C42.3806 112.496 42.4466 112.736 42.5426 112.976C42.8546 113.648 43.4906 113.984 44.4506 113.984C45.2186 113.972 45.8246 113.66 46.2686 113.048C46.3166 112.976 46.3706 112.94 46.4306 112.94C46.4666 112.94 46.5086 112.964 46.5566 113.012L47.8526 114.29C47.9126 114.35 47.9426 114.404 47.9426 114.452C47.9426 114.476 47.9186 114.524 47.8706 114.596C47.4746 115.088 46.9646 115.472 46.3406 115.748C45.7166 116.012 45.0326 116.144 44.2886 116.144C43.2566 116.144 42.3806 115.91 41.6606 115.442C40.9526 114.974 40.4426 114.32 40.1306 113.48C39.8786 112.88 39.7526 112.094 39.7526 111.122C39.7526 110.462 39.8426 109.88 40.0226 109.376C40.2986 108.524 40.7786 107.846 41.4626 107.342C42.1586 106.838 42.9806 106.586 43.9286 106.586C45.1286 106.586 46.0886 106.934 46.8086 107.63C47.5406 108.326 47.9846 109.256 48.1406 110.42ZM43.9466 108.782C43.1906 108.782 42.6926 109.136 42.4526 109.844C42.4046 110 42.3626 110.192 42.3266 110.42C42.3266 110.48 42.3566 110.51 42.4166 110.51H45.5306C45.6026 110.51 45.6266 110.48 45.6026 110.42C45.5426 110.072 45.5126 109.904 45.5126 109.916C45.4046 109.556 45.2126 109.28 44.9366 109.088C44.6726 108.884 44.3426 108.782 43.9466 108.782ZM53.3789 106.604C54.1589 106.604 54.8549 106.742 55.4669 107.018C56.0789 107.282 56.5529 107.648 56.8889 108.116C57.2369 108.584 57.4109 109.106 57.4109 109.682V115.784C57.4109 115.844 57.3869 115.898 57.3389 115.946C57.3029 115.982 57.2549 116 57.1949 116H55.0889C55.0289 116 54.9749 115.982 54.9269 115.946C54.8909 115.898 54.8729 115.844 54.8729 115.784V115.19C54.8729 115.154 54.8609 115.13 54.8369 115.118C54.8129 115.106 54.7889 115.118 54.7649 115.154C54.2609 115.814 53.4509 116.144 52.3349 116.144C51.3989 116.144 50.6429 115.916 50.0669 115.46C49.4909 115.004 49.2029 114.332 49.2029 113.444C49.2029 112.52 49.5269 111.806 50.1749 111.302C50.8229 110.786 51.7469 110.528 52.9469 110.528H54.7829C54.8429 110.528 54.8729 110.498 54.8729 110.438V110.042C54.8729 109.646 54.7529 109.34 54.5129 109.124C54.2729 108.896 53.9129 108.782 53.4329 108.782C53.0609 108.782 52.7489 108.848 52.4969 108.98C52.2569 109.112 52.1009 109.298 52.0289 109.538C51.9929 109.67 51.9149 109.73 51.7949 109.718L49.6169 109.43C49.4729 109.406 49.4069 109.352 49.4189 109.268C49.4669 108.764 49.6649 108.308 50.0129 107.9C50.3729 107.492 50.8409 107.174 51.4169 106.946C52.0049 106.718 52.6589 106.604 53.3789 106.604ZM53.0189 114.254C53.5349 114.254 53.9729 114.116 54.3329 113.84C54.6929 113.564 54.8729 113.21 54.8729 112.778V112.13C54.8729 112.07 54.8429 112.04 54.7829 112.04H53.4869C52.9469 112.04 52.5209 112.142 52.2089 112.346C51.9089 112.55 51.7589 112.838 51.7589 113.21C51.7589 113.534 51.8729 113.792 52.1009 113.984C52.3289 114.164 52.6349 114.254 53.0189 114.254ZM62.8887 116.126C62.0847 116.126 61.3827 116.012 60.7827 115.784C60.1827 115.556 59.7147 115.238 59.3787 114.83C59.0547 114.422 58.8927 113.96 58.8927 113.444V113.264C58.8927 113.204 58.9107 113.156 58.9467 113.12C58.9947 113.072 59.0487 113.048 59.1087 113.048H61.1067C61.1667 113.048 61.2147 113.072 61.2507 113.12C61.2987 113.156 61.3227 113.204 61.3227 113.264V113.282C61.3227 113.546 61.4667 113.774 61.7547 113.966C62.0547 114.146 62.4267 114.236 62.8707 114.236C63.2787 114.236 63.6087 114.158 63.8607 114.002C64.1127 113.834 64.2387 113.63 64.2387 113.39C64.2387 113.174 64.1307 113.012 63.9147 112.904C63.6987 112.796 63.3447 112.682 62.8527 112.562C62.2887 112.418 61.8447 112.28 61.5207 112.148C60.7527 111.884 60.1407 111.56 59.6847 111.176C59.2287 110.792 59.0007 110.24 59.0007 109.52C59.0007 108.632 59.3427 107.93 60.0267 107.414C60.7227 106.886 61.6407 106.622 62.7807 106.622C63.5487 106.622 64.2207 106.748 64.7967 107C65.3727 107.24 65.8167 107.582 66.1287 108.026C66.4527 108.47 66.6147 108.974 66.6147 109.538C66.6147 109.598 66.5907 109.652 66.5427 109.7C66.5067 109.736 66.4587 109.754 66.3987 109.754H64.4727C64.4127 109.754 64.3587 109.736 64.3107 109.7C64.2747 109.652 64.2567 109.598 64.2567 109.538C64.2567 109.274 64.1187 109.052 63.8427 108.872C63.5787 108.692 63.2247 108.602 62.7807 108.602C62.3847 108.602 62.0607 108.674 61.8087 108.818C61.5567 108.962 61.4307 109.16 61.4307 109.412C61.4307 109.652 61.5507 109.832 61.7907 109.952C62.0427 110.072 62.4567 110.198 63.0327 110.33C63.1647 110.366 63.3147 110.408 63.4827 110.456C63.6507 110.492 63.8307 110.54 64.0227 110.6C64.8747 110.852 65.5467 111.176 66.0387 111.572C66.5307 111.968 66.7767 112.544 66.7767 113.3C66.7767 114.188 66.4227 114.884 65.7147 115.388C65.0187 115.88 64.0767 116.126 62.8887 116.126ZM76.4239 110.42C76.4959 110.876 76.5199 111.386 76.4959 111.95C76.4839 112.094 76.4059 112.166 76.2619 112.166H70.6999C70.6279 112.166 70.6039 112.196 70.6279 112.256C70.6639 112.496 70.7299 112.736 70.8259 112.976C71.1379 113.648 71.7739 113.984 72.7339 113.984C73.5019 113.972 74.1079 113.66 74.5519 113.048C74.5999 112.976 74.6539 112.94 74.7139 112.94C74.7499 112.94 74.7919 112.964 74.8399 113.012L76.1359 114.29C76.1959 114.35 76.2259 114.404 76.2259 114.452C76.2259 114.476 76.2019 114.524 76.1539 114.596C75.7579 115.088 75.2479 115.472 74.6239 115.748C73.9999 116.012 73.3159 116.144 72.5719 116.144C71.5399 116.144 70.6639 115.91 69.9439 115.442C69.2359 114.974 68.7259 114.32 68.4139 113.48C68.1619 112.88 68.0359 112.094 68.0359 111.122C68.0359 110.462 68.1259 109.88 68.3059 109.376C68.5819 108.524 69.0619 107.846 69.7459 107.342C70.4419 106.838 71.2639 106.586 72.2119 106.586C73.4119 106.586 74.3719 106.934 75.0919 107.63C75.8239 108.326 76.2679 109.256 76.4239 110.42ZM72.2299 108.782C71.4739 108.782 70.9759 109.136 70.7359 109.844C70.6879 110 70.6459 110.192 70.6099 110.42C70.6099 110.48 70.6399 110.51 70.6999 110.51H73.8139C73.8859 110.51 73.9099 110.48 73.8859 110.42C73.8259 110.072 73.7959 109.904 73.7959 109.916C73.6879 109.556 73.4959 109.28 73.2199 109.088C72.9559 108.884 72.6259 108.782 72.2299 108.782ZM83.802 103.616C83.802 103.556 83.82 103.508 83.856 103.472C83.904 103.424 83.958 103.4 84.018 103.4H86.124C86.184 103.4 86.232 103.424 86.268 103.472C86.316 103.508 86.34 103.556 86.34 103.616V115.784C86.34 115.844 86.316 115.898 86.268 115.946C86.232 115.982 86.184 116 86.124 116H84.018C83.958 116 83.904 115.982 83.856 115.946C83.82 115.898 83.802 115.844 83.802 115.784V115.19C83.802 115.154 83.79 115.136 83.766 115.136C83.742 115.124 83.718 115.13 83.694 115.154C83.19 115.814 82.5 116.144 81.624 116.144C80.784 116.144 80.058 115.91 79.446 115.442C78.846 114.974 78.414 114.332 78.15 113.516C77.946 112.892 77.844 112.166 77.844 111.338C77.844 110.486 77.952 109.742 78.168 109.106C78.444 108.338 78.876 107.732 79.464 107.288C80.064 106.832 80.802 106.604 81.678 106.604C82.542 106.604 83.214 106.904 83.694 107.504C83.718 107.54 83.742 107.552 83.766 107.54C83.79 107.528 83.802 107.504 83.802 107.468V103.616ZM83.424 113.192C83.664 112.748 83.784 112.142 83.784 111.374C83.784 110.57 83.652 109.94 83.388 109.484C83.112 109.016 82.71 108.782 82.182 108.782C81.618 108.782 81.192 109.016 80.904 109.484C80.604 109.952 80.454 110.588 80.454 111.392C80.454 112.112 80.58 112.712 80.832 113.192C81.132 113.708 81.576 113.966 82.164 113.966C82.704 113.966 83.124 113.708 83.424 113.192ZM102.536 116C102.416 116 102.332 115.946 102.284 115.838L100.034 110.852C100.01 110.804 99.9744 110.78 99.9264 110.78H98.2524C98.1924 110.78 98.1624 110.81 98.1624 110.87V115.784C98.1624 115.844 98.1384 115.898 98.0904 115.946C98.0544 115.982 98.0064 116 97.9464 116H95.8404C95.7804 116 95.7264 115.982 95.6784 115.946C95.6424 115.898 95.6244 115.844 95.6244 115.784V103.616C95.6244 103.556 95.6424 103.508 95.6784 103.472C95.7264 103.424 95.7804 103.4 95.8404 103.4H100.988C101.756 103.4 102.428 103.556 103.004 103.868C103.592 104.18 104.042 104.624 104.354 105.2C104.678 105.776 104.84 106.442 104.84 107.198C104.84 108.014 104.636 108.716 104.228 109.304C103.82 109.88 103.25 110.288 102.518 110.528C102.458 110.552 102.44 110.594 102.464 110.654L104.912 115.748C104.936 115.796 104.948 115.832 104.948 115.856C104.948 115.952 104.882 116 104.75 116H102.536ZM98.2524 105.578C98.1924 105.578 98.1624 105.608 98.1624 105.668V108.746C98.1624 108.806 98.1924 108.836 98.2524 108.836H100.61C101.114 108.836 101.522 108.686 101.834 108.386C102.158 108.086 102.32 107.696 102.32 107.216C102.32 106.736 102.158 106.346 101.834 106.046C101.522 105.734 101.114 105.578 100.61 105.578H98.2524ZM114.586 110.42C114.658 110.876 114.682 111.386 114.658 111.95C114.646 112.094 114.568 112.166 114.424 112.166H108.862C108.79 112.166 108.766 112.196 108.79 112.256C108.826 112.496 108.892 112.736 108.988 112.976C109.3 113.648 109.936 113.984 110.896 113.984C111.664 113.972 112.27 113.66 112.714 113.048C112.762 112.976 112.816 112.94 112.876 112.94C112.912 112.94 112.954 112.964 113.002 113.012L114.298 114.29C114.358 114.35 114.388 114.404 114.388 114.452C114.388 114.476 114.364 114.524 114.316 114.596C113.92 115.088 113.41 115.472 112.786 115.748C112.162 116.012 111.478 116.144 110.734 116.144C109.702 116.144 108.826 115.91 108.106 115.442C107.398 114.974 106.888 114.32 106.576 113.48C106.324 112.88 106.198 112.094 106.198 111.122C106.198 110.462 106.288 109.88 106.468 109.376C106.744 108.524 107.224 107.846 107.908 107.342C108.604 106.838 109.426 106.586 110.374 106.586C111.574 106.586 112.534 106.934 113.254 107.63C113.986 108.326 114.43 109.256 114.586 110.42ZM110.392 108.782C109.636 108.782 109.138 109.136 108.898 109.844C108.85 110 108.808 110.192 108.772 110.42C108.772 110.48 108.802 110.51 108.862 110.51H111.976C112.048 110.51 112.072 110.48 112.048 110.42C111.988 110.072 111.958 109.904 111.958 109.916C111.85 109.556 111.658 109.28 111.382 109.088C111.118 108.884 110.788 108.782 110.392 108.782ZM118.286 116C118.166 116 118.088 115.94 118.052 115.82L115.172 106.982C115.16 106.958 115.154 106.928 115.154 106.892C115.154 106.784 115.22 106.73 115.352 106.73H117.674C117.806 106.73 117.89 106.79 117.926 106.91L119.402 112.364C119.414 112.4 119.432 112.418 119.456 112.418C119.48 112.418 119.498 112.4 119.51 112.364L120.986 106.91C121.022 106.79 121.106 106.73 121.238 106.73L123.56 106.766C123.632 106.766 123.686 106.79 123.722 106.838C123.758 106.874 123.764 106.934 123.74 107.018L120.878 115.82C120.842 115.94 120.764 116 120.644 116H118.286ZM132.656 110.42C132.728 110.876 132.752 111.386 132.728 111.95C132.716 112.094 132.638 112.166 132.494 112.166H126.932C126.86 112.166 126.836 112.196 126.86 112.256C126.896 112.496 126.962 112.736 127.058 112.976C127.37 113.648 128.006 113.984 128.966 113.984C129.734 113.972 130.34 113.66 130.784 113.048C130.832 112.976 130.886 112.94 130.946 112.94C130.982 112.94 131.024 112.964 131.072 113.012L132.368 114.29C132.428 114.35 132.458 114.404 132.458 114.452C132.458 114.476 132.434 114.524 132.386 114.596C131.99 115.088 131.48 115.472 130.856 115.748C130.232 116.012 129.548 116.144 128.804 116.144C127.772 116.144 126.896 115.91 126.176 115.442C125.468 114.974 124.958 114.32 124.646 113.48C124.394 112.88 124.268 112.094 124.268 111.122C124.268 110.462 124.358 109.88 124.538 109.376C124.814 108.524 125.294 107.846 125.978 107.342C126.674 106.838 127.496 106.586 128.444 106.586C129.644 106.586 130.604 106.934 131.324 107.63C132.056 108.326 132.5 109.256 132.656 110.42ZM128.462 108.782C127.706 108.782 127.208 109.136 126.968 109.844C126.92 110 126.878 110.192 126.842 110.42C126.842 110.48 126.872 110.51 126.932 110.51H130.046C130.118 110.51 130.142 110.48 130.118 110.42C130.058 110.072 130.028 109.904 130.028 109.916C129.92 109.556 129.728 109.28 129.452 109.088C129.188 108.884 128.858 108.782 128.462 108.782ZM139.116 106.604C140.076 106.604 140.85 106.898 141.438 107.486C142.026 108.074 142.32 108.872 142.32 109.88V115.784C142.32 115.844 142.296 115.898 142.248 115.946C142.212 115.982 142.164 116 142.104 116H139.998C139.938 116 139.884 115.982 139.836 115.946C139.8 115.898 139.782 115.844 139.782 115.784V110.402C139.782 109.922 139.644 109.532 139.368 109.232C139.104 108.932 138.75 108.782 138.306 108.782C137.862 108.782 137.502 108.932 137.226 109.232C136.962 109.532 136.83 109.922 136.83 110.402V115.784C136.83 115.844 136.806 115.898 136.758 115.946C136.722 115.982 136.674 116 136.614 116H134.508C134.448 116 134.394 115.982 134.346 115.946C134.31 115.898 134.292 115.844 134.292 115.784V106.964C134.292 106.904 134.31 106.856 134.346 106.82C134.394 106.772 134.448 106.748 134.508 106.748H136.614C136.674 106.748 136.722 106.772 136.758 106.82C136.806 106.856 136.83 106.904 136.83 106.964V107.594C136.83 107.63 136.842 107.654 136.866 107.666C136.89 107.678 136.908 107.672 136.92 107.648C137.412 106.952 138.144 106.604 139.116 106.604ZM149.536 106.964C149.536 106.904 149.554 106.856 149.59 106.82C149.638 106.772 149.692 106.748 149.752 106.748H151.858C151.918 106.748 151.966 106.772 152.002 106.82C152.05 106.856 152.074 106.904 152.074 106.964V115.784C152.074 115.844 152.05 115.898 152.002 115.946C151.966 115.982 151.918 116 151.858 116H149.752C149.692 116 149.638 115.982 149.59 115.946C149.554 115.898 149.536 115.844 149.536 115.784V115.172C149.536 115.136 149.524 115.118 149.5 115.118C149.476 115.106 149.452 115.118 149.428 115.154C148.948 115.802 148.204 116.126 147.196 116.126C146.284 116.126 145.534 115.85 144.946 115.298C144.358 114.746 144.064 113.972 144.064 112.976V106.964C144.064 106.904 144.082 106.856 144.118 106.82C144.166 106.772 144.22 106.748 144.28 106.748H146.368C146.428 106.748 146.476 106.772 146.512 106.82C146.56 106.856 146.584 106.904 146.584 106.964V112.346C146.584 112.826 146.71 113.216 146.962 113.516C147.226 113.816 147.586 113.966 148.042 113.966C148.45 113.966 148.786 113.846 149.05 113.606C149.314 113.354 149.476 113.03 149.536 112.634V106.964ZM162.135 110.42C162.207 110.876 162.231 111.386 162.207 111.95C162.195 112.094 162.117 112.166 161.973 112.166H156.411C156.339 112.166 156.315 112.196 156.339 112.256C156.375 112.496 156.441 112.736 156.537 112.976C156.849 113.648 157.485 113.984 158.445 113.984C159.213 113.972 159.819 113.66 160.263 113.048C160.311 112.976 160.365 112.94 160.425 112.94C160.461 112.94 160.503 112.964 160.551 113.012L161.847 114.29C161.907 114.35 161.937 114.404 161.937 114.452C161.937 114.476 161.913 114.524 161.865 114.596C161.469 115.088 160.959 115.472 160.335 115.748C159.711 116.012 159.027 116.144 158.283 116.144C157.251 116.144 156.375 115.91 155.655 115.442C154.947 114.974 154.437 114.32 154.125 113.48C153.873 112.88 153.747 112.094 153.747 111.122C153.747 110.462 153.837 109.88 154.017 109.376C154.293 108.524 154.773 107.846 155.457 107.342C156.153 106.838 156.975 106.586 157.923 106.586C159.123 106.586 160.083 106.934 160.803 107.63C161.535 108.326 161.979 109.256 162.135 110.42ZM157.941 108.782C157.185 108.782 156.687 109.136 156.447 109.844C156.399 110 156.357 110.192 156.321 110.42C156.321 110.48 156.351 110.51 156.411 110.51H159.525C159.597 110.51 159.621 110.48 159.597 110.42C159.537 110.072 159.507 109.904 159.507 109.916C159.399 109.556 159.207 109.28 158.931 109.088C158.667 108.884 158.337 108.782 157.941 108.782Z" fill="#050F4E"/>
</svg>
