<svg width="49" height="48" viewBox="0 0 49 48" fill="none" xmlns="http://www.w3.org/2000/svg">
<path fill-rule="evenodd" clip-rule="evenodd" d="M10.6622 23.99V34.6522H21.3244V23.99H10.6622ZM18.6589 31.9867V26.6556H13.3278V31.9867H18.6589Z" fill="#6ED8A1"/>
<path fill-rule="evenodd" clip-rule="evenodd" d="M17.3261 1.94362e-08C15.6758 -1.68584e-05 14.0659 0.510378 12.7171 1.46122C11.3682 2.41206 10.3465 3.75681 9.79192 5.31112H0V8.61774L5.33111 12.6561V45.3145H1.33278C0.979303 45.3145 0.640306 45.4549 0.390362 45.7048C0.140418 45.9548 0 46.2938 0 46.6472C0 47.0007 0.140418 47.3397 0.390362 47.5896C0.640306 47.8396 0.979303 47.98 1.33278 47.98H5.33111V48H42.6489V47.98H46.6472C47.0007 47.98 47.3397 47.8396 47.5896 47.5896C47.8396 47.3397 47.98 47.0007 47.98 46.6472C47.98 46.2938 47.8396 45.9548 47.5896 45.7048C47.3397 45.4549 47.0007 45.3145 46.6472 45.3145H42.6489V12.704L48.6464 8.66572V5.30979H24.8603C24.3055 3.75572 23.2837 2.41126 21.9348 1.46067C20.586 0.510085 18.9762 -0.000114979 17.3261 1.94362e-08ZM24.8683 10.6622C25.1703 9.80601 25.324 8.90457 25.3228 7.99667V7.97668H44.8973L40.9096 10.6622H24.8683ZM23.2863 13.3278C22.5371 14.1674 21.6187 14.8389 20.5914 15.2983C19.5642 15.7577 18.4514 15.9946 17.3261 15.9933C16.2008 15.9946 15.088 15.7577 14.0608 15.2983C13.0336 14.8389 12.1152 14.1674 11.3659 13.3278H7.99667V45.3145H23.99V23.99H37.3178V45.3145H39.9833V13.3278H23.2863ZM9.32945 7.99667C9.32945 8.93095 9.48938 9.82791 9.78392 10.6622H7.1117L3.56651 7.97668H9.32945V7.99667ZM18.6589 6.66389V3.99833H15.9933V6.66389H13.3278V9.32945H15.9933V11.995H18.6589V9.32945H21.3244V6.66389H18.6589ZM34.6522 26.6556V45.3145H26.6556V26.6556H34.6522Z" fill="#6ED8A1"/>
</svg>
