<svg width="47" height="48" viewBox="0 0 47 48" fill="none" xmlns="http://www.w3.org/2000/svg">
<path d="M17.7778 0C10.8444 0 5.33333 5.51111 5.33333 12.4444C5.32118 14.4833 5.81306 16.4936 6.76523 18.2965C7.71741 20.0995 9.10036 21.6391 10.7911 22.7787C4.46222 25.504 0 31.808 0 39.1111H3.55556C3.55556 31.2889 9.95556 24.8889 17.7778 24.8889C24.7111 24.8889 30.2222 19.3778 30.2222 12.4444C30.2222 5.51111 24.7111 0 17.7778 0ZM17.7778 3.55556C22.7556 3.55556 26.6667 7.46667 26.6667 12.4444C26.6667 17.4222 22.7556 21.3333 17.7778 21.3333C12.8 21.3333 8.88889 17.4222 8.88889 12.4444C8.88889 7.46667 12.8 3.55556 17.7778 3.55556ZM32.1778 23.1111V26.8444C31.1111 27.0222 30.0444 27.5556 29.1556 28.0889L26.4889 25.4222L24 27.9111L26.6667 30.5778C25.9556 31.4667 25.6 32.5333 25.4222 33.7778H21.3333V37.3333H25.0667C25.2444 38.4 25.7778 39.4667 26.3111 40.5333L23.6444 43.2L26.1333 45.6889L28.8 43.0222C29.6889 43.5556 30.7556 44.0889 31.8222 44.2667V48H35.3778V44.2667C36.4444 44.0889 37.5111 43.5556 38.4 43.0222L41.0667 45.6889L43.5556 43.2L40.8889 40.5333C41.6 39.6444 41.9556 38.5778 42.1333 37.3333H46.2222V33.7778H42.4889C42.3111 32.7111 41.7778 31.6444 41.2444 30.5778L43.9111 27.9111L41.4222 25.4222L38.7556 28.0889C37.8667 27.5556 36.8 27.0222 35.7333 26.8444V23.1111H32.1778ZM33.7778 30.2222C36.8 30.2222 39.1111 32.5333 39.1111 35.5556C39.1111 38.5778 36.8 40.8889 33.7778 40.8889C30.7556 40.8889 28.4444 38.5778 28.4444 35.5556C28.4444 32.5333 30.7556 30.2222 33.7778 30.2222ZM33.7778 33.7778C33.5518 33.7806 33.3291 33.8327 33.1253 33.9307C32.9138 34.0312 32.7213 34.1678 32.5564 34.3342C32.39 34.4991 32.2535 34.6915 32.1529 34.9031C32.055 35.1068 32.0028 35.3295 32 35.5556C32 36.2222 32.4996 36.8889 33.1253 37.1804C33.3291 37.2784 33.5518 37.3305 33.7778 37.3333C34.6667 37.3333 35.5556 36.4444 35.5556 35.5556C35.5556 34.6667 34.6667 33.7778 33.7778 33.7778Z" fill="#050F4E"/>
</svg>
